<?xml version="1.0" encoding="UTF-8" standalone="no"?>
<!DOCTYPE svg PUBLIC "-//W3C//DTD SVG 1.1//EN"
 "http://www.w3.org/Graphics/SVG/1.1/DTD/svg11.dtd">
<!-- Generated by graphviz version 2.43.0 (0)
 -->
<!-- Title: mongraph Pages: 1 -->
<svg width="366pt" height="702pt"
 viewBox="0.00 0.00 366.00 702.49" xmlns="http://www.w3.org/2000/svg" xmlns:xlink="http://www.w3.org/1999/xlink">
<g id="graph0" class="graph" transform="scale(1 1) rotate(0) translate(4 698.49)">
<title>mongraph</title>
<polygon fill="white" stroke="transparent" points="-4,4 -4,-698.49 362,-698.49 362,4 -4,4"/>
<!-- 10 -->
<g id="node1" class="node">
<title>10</title>
<ellipse fill="none" stroke="black" cx="188" cy="-293.24" rx="23" ry="23"/>
<text text-anchor="middle" x="188" y="-289.54" font-family="Times,serif" font-size="14.00">10</text>
</g>
<!-- 9 -->
<g id="node2" class="node">
<title>9</title>
<ellipse fill="none" stroke="black" cx="98" cy="-201.5" rx="18" ry="18"/>
<text text-anchor="middle" x="98" y="-197.8" font-family="Times,serif" font-size="14.00">9</text>
</g>
<!-- 10&#45;&gt;9 -->
<g id="edge1" class="edge">
<title>10&#45;&gt;9</title>
<path fill="none" stroke="black" d="M168.25,-281.45C156.28,-274.27 141.21,-264.07 130,-252.5 122.73,-245 116.2,-235.6 110.97,-226.98"/>
<polygon fill="black" stroke="black" points="113.85,-224.97 105.82,-218.06 107.79,-228.47 113.85,-224.97"/>
<text text-anchor="middle" x="135" y="-241.3" font-family="Times,serif" font-size="14.00">2</text>
</g>
<!-- 12 -->
<g id="node3" class="node">
<title>12</title>
<ellipse fill="none" stroke="black" cx="189" cy="-22.75" rx="23" ry="23"/>
<text text-anchor="middle" x="189" y="-19.05" font-family="Times,serif" font-size="14.00">12</text>
</g>
<!-- 10&#45;&gt;12 -->
<g id="edge2" class="edge">
<title>10&#45;&gt;12</title>
<path fill="none" stroke="black" d="M179.31,-271.82C168.65,-244.49 152.51,-194.35 157,-150.5 161.02,-111.22 164.42,-101.54 175,-63.5 175.88,-60.32 176.89,-57.04 177.94,-53.78"/>
<polygon fill="black" stroke="black" points="181.29,-54.8 181.2,-44.21 174.67,-52.55 181.29,-54.8"/>
<text text-anchor="middle" x="162" y="-154.3" font-family="Times,serif" font-size="14.00">3</text>
</g>
<!-- 5 -->
<g id="node4" class="node">
<title>5</title>
<ellipse fill="none" stroke="black" cx="291" cy="-201.5" rx="18" ry="18"/>
<text text-anchor="middle" x="291" y="-197.8" font-family="Times,serif" font-size="14.00">5</text>
</g>
<!-- 10&#45;&gt;5 -->
<g id="edge3" class="edge">
<title>10&#45;&gt;5</title>
<path fill="none" stroke="black" d="M208.66,-283.68C223.55,-276.8 243.51,-266.05 258,-252.5 265.89,-245.11 272.82,-235.49 278.25,-226.65"/>
<polygon fill="black" stroke="black" points="281.36,-228.27 283.36,-217.86 275.31,-224.75 281.36,-228.27"/>
<text text-anchor="middle" x="275" y="-241.3" font-family="Times,serif" font-size="14.00">1</text>
</g>
<!-- 9&#45;&gt;10 -->
<g id="edge4" class="edge">
<title>9&#45;&gt;10</title>
<path fill="none" stroke="black" d="M96.11,-219.73C95.87,-230.13 97.26,-243.13 104,-252.5 116.25,-269.51 137.71,-279.49 155.87,-285.2"/>
<polygon fill="black" stroke="black" points="154.96,-288.58 165.54,-287.94 156.87,-281.84 154.96,-288.58"/>
<text text-anchor="middle" x="109" y="-241.3" font-family="Times,serif" font-size="14.00">2</text>
</g>
<!-- 6 -->
<g id="node5" class="node">
<title>6</title>
<ellipse fill="none" stroke="black" cx="68" cy="-114.5" rx="18" ry="18"/>
<text text-anchor="middle" x="68" y="-110.8" font-family="Times,serif" font-size="14.00">6</text>
</g>
<!-- 9&#45;&gt;6 -->
<g id="edge5" class="edge">
<title>9&#45;&gt;6</title>
<path fill="none" stroke="black" d="M92.22,-184.11C87.94,-172 82.04,-155.26 77.13,-141.36"/>
<polygon fill="black" stroke="black" points="80.4,-140.1 73.77,-131.83 73.79,-142.43 80.4,-140.1"/>
<text text-anchor="middle" x="90" y="-154.3" font-family="Times,serif" font-size="14.00">2</text>
</g>
<!-- 12&#45;&gt;10 -->
<g id="edge15" class="edge">
<title>12&#45;&gt;10</title>
<path fill="none" stroke="black" d="M188.92,-45.65C188.74,-92.9 188.33,-204.62 188.12,-259.99"/>
<polygon fill="black" stroke="black" points="184.62,-260.26 188.08,-270.27 191.62,-260.28 184.62,-260.26"/>
<text text-anchor="middle" x="193" y="-154.3" font-family="Times,serif" font-size="14.00">3</text>
</g>
<!-- 5&#45;&gt;10 -->
<g id="edge21" class="edge">
<title>5&#45;&gt;10</title>
<path fill="none" stroke="black" d="M276.91,-213.26C268.16,-220.05 256.77,-229.1 247,-237.5 235.06,-247.76 222.2,-259.59 211.55,-269.62"/>
<polygon fill="black" stroke="black" points="209.08,-267.14 204.23,-276.56 213.89,-272.23 209.08,-267.14"/>
<text text-anchor="middle" x="252" y="-241.3" font-family="Times,serif" font-size="14.00">0</text>
</g>
<!-- 7 -->
<g id="node13" class="node">
<title>7</title>
<ellipse fill="none" stroke="black" cx="251" cy="-114.5" rx="18" ry="18"/>
<text text-anchor="middle" x="251" y="-110.8" font-family="Times,serif" font-size="14.00">7</text>
</g>
<!-- 5&#45;&gt;7 -->
<g id="edge22" class="edge">
<title>5&#45;&gt;7</title>
<path fill="none" stroke="black" d="M288.77,-183.19C287.02,-173.26 284.02,-160.76 279,-150.5 276.48,-145.34 273.08,-140.25 269.53,-135.62"/>
<polygon fill="black" stroke="black" points="272.19,-133.33 263.12,-127.85 266.79,-137.79 272.19,-133.33"/>
<text text-anchor="middle" x="289" y="-154.3" font-family="Times,serif" font-size="14.00">0</text>
</g>
<!-- 6&#45;&gt;9 -->
<g id="edge16" class="edge">
<title>6&#45;&gt;9</title>
<path fill="none" stroke="black" d="M80.84,-127.54C86.59,-133.79 92.79,-141.89 96,-150.5 98.64,-157.58 99.72,-165.62 99.99,-173.15"/>
<polygon fill="black" stroke="black" points="96.49,-173.28 99.92,-183.31 103.49,-173.34 96.49,-173.28"/>
<text text-anchor="middle" x="105" y="-154.3" font-family="Times,serif" font-size="14.00">0</text>
</g>
<!-- 11 -->
<g id="node6" class="node">
<title>11</title>
<ellipse fill="none" stroke="black" cx="51" cy="-497.74" rx="23" ry="23"/>
<text text-anchor="middle" x="51" y="-494.04" font-family="Times,serif" font-size="14.00">11</text>
</g>
<!-- 11&#45;&gt;9 -->
<g id="edge7" class="edge">
<title>11&#45;&gt;9</title>
<path fill="none" stroke="black" d="M48.97,-475.04C45.83,-434.16 42.03,-343.31 62,-270.5 66.38,-254.53 74.95,-238.09 82.64,-225.37"/>
<polygon fill="black" stroke="black" points="85.65,-227.16 88,-216.83 79.72,-223.44 85.65,-227.16"/>
<text text-anchor="middle" x="56" y="-337.79" font-family="Times,serif" font-size="14.00">2</text>
</g>
<!-- 8 -->
<g id="node7" class="node">
<title>8</title>
<ellipse fill="none" stroke="black" cx="84" cy="-589.49" rx="18" ry="18"/>
<text text-anchor="middle" x="84" y="-585.79" font-family="Times,serif" font-size="14.00">8</text>
</g>
<!-- 11&#45;&gt;8 -->
<g id="edge6" class="edge">
<title>11&#45;&gt;8</title>
<path fill="none" stroke="black" d="M47.92,-520.5C47.32,-530.83 47.88,-543.16 52,-553.49 54.48,-559.71 58.62,-565.51 63.11,-570.54"/>
<polygon fill="black" stroke="black" points="60.73,-573.11 70.27,-577.73 65.7,-568.17 60.73,-573.11"/>
<text text-anchor="middle" x="57" y="-542.29" font-family="Times,serif" font-size="14.00">2</text>
</g>
<!-- 8&#45;&gt;11 -->
<g id="edge8" class="edge">
<title>8&#45;&gt;11</title>
<path fill="none" stroke="black" d="M78.1,-572.44C73.67,-560.4 67.48,-543.55 62.13,-529"/>
<polygon fill="black" stroke="black" points="65.33,-527.56 58.59,-519.38 58.76,-529.98 65.33,-527.56"/>
<text text-anchor="middle" x="76" y="-542.29" font-family="Times,serif" font-size="14.00">0</text>
</g>
<!-- 3 -->
<g id="node8" class="node">
<title>3</title>
<ellipse fill="none" stroke="black" cx="101" cy="-676.49" rx="18" ry="18"/>
<text text-anchor="middle" x="101" y="-672.79" font-family="Times,serif" font-size="14.00">3</text>
</g>
<!-- 3&#45;&gt;6 -->
<g id="edge11" class="edge">
<title>3&#45;&gt;6</title>
<path fill="none" stroke="black" d="M83.87,-669.97C55.05,-659.49 0,-633.8 0,-590.49 0,-590.49 0,-590.49 0,-200.5 0,-171.19 24.95,-146.2 44.62,-131.05"/>
<polygon fill="black" stroke="black" points="46.9,-133.72 52.91,-124.99 42.77,-128.07 46.9,-133.72"/>
<text text-anchor="middle" x="5" y="-381.29" font-family="Times,serif" font-size="14.00">2</text>
</g>
<!-- 3&#45;&gt;8 -->
<g id="edge10" class="edge">
<title>3&#45;&gt;8</title>
<path fill="none" stroke="black" d="M93.48,-659.8C90.98,-653.88 88.46,-647 87,-640.49 85.39,-633.3 84.52,-625.4 84.07,-618.05"/>
<polygon fill="black" stroke="black" points="87.56,-617.66 83.68,-607.8 80.56,-617.93 87.56,-617.66"/>
<text text-anchor="middle" x="92" y="-629.29" font-family="Times,serif" font-size="14.00">2</text>
</g>
<!-- 0 -->
<g id="node9" class="node">
<title>0</title>
<ellipse fill="none" stroke="black" cx="154" cy="-589.49" rx="18" ry="18"/>
<text text-anchor="middle" x="154" y="-585.79" font-family="Times,serif" font-size="14.00">0</text>
</g>
<!-- 3&#45;&gt;0 -->
<g id="edge9" class="edge">
<title>3&#45;&gt;0</title>
<path fill="none" stroke="black" d="M105.42,-658.94C108.57,-648.8 113.42,-635.83 120,-625.49 123.7,-619.67 128.49,-614.02 133.29,-609.01"/>
<polygon fill="black" stroke="black" points="136.01,-611.24 140.7,-601.74 131.11,-606.24 136.01,-611.24"/>
<text text-anchor="middle" x="125" y="-629.29" font-family="Times,serif" font-size="14.00">2</text>
</g>
<!-- 0&#45;&gt;3 -->
<g id="edge12" class="edge">
<title>0&#45;&gt;3</title>
<path fill="none" stroke="black" d="M147.58,-606.33C143.21,-616.43 136.96,-629.62 130,-640.49 126.86,-645.39 123.12,-650.37 119.39,-654.98"/>
<polygon fill="black" stroke="black" points="116.59,-652.88 112.82,-662.78 121.94,-657.39 116.59,-652.88"/>
<text text-anchor="middle" x="143" y="-629.29" font-family="Times,serif" font-size="14.00">0</text>
</g>
<!-- 1 -->
<g id="node10" class="node">
<title>1</title>
<ellipse fill="none" stroke="black" cx="187" cy="-497.74" rx="18" ry="18"/>
<text text-anchor="middle" x="187" y="-494.04" font-family="Times,serif" font-size="14.00">1</text>
</g>
<!-- 0&#45;&gt;1 -->
<g id="edge13" class="edge">
<title>0&#45;&gt;1</title>
<path fill="none" stroke="black" d="M151.65,-571.32C150.95,-561.43 151.2,-548.93 155,-538.49 157.67,-531.16 162.28,-524.18 167.19,-518.16"/>
<polygon fill="black" stroke="black" points="169.87,-520.42 173.91,-510.62 164.64,-515.76 169.87,-520.42"/>
<text text-anchor="middle" x="160" y="-542.29" font-family="Times,serif" font-size="14.00">0</text>
</g>
<!-- 2 -->
<g id="node11" class="node">
<title>2</title>
<ellipse fill="none" stroke="black" cx="340" cy="-438.99" rx="18" ry="18"/>
<text text-anchor="middle" x="340" y="-435.29" font-family="Times,serif" font-size="14.00">2</text>
</g>
<!-- 0&#45;&gt;2 -->
<g id="edge14" class="edge">
<title>0&#45;&gt;2</title>
<path fill="none" stroke="black" d="M167.68,-577.57C199.66,-552.04 279.53,-488.27 318.26,-457.35"/>
<polygon fill="black" stroke="black" points="320.67,-459.9 326.3,-450.93 316.3,-454.43 320.67,-459.9"/>
<text text-anchor="middle" x="220" y="-542.29" font-family="Times,serif" font-size="14.00">2</text>
</g>
<!-- 1&#45;&gt;5 -->
<g id="edge18" class="edge">
<title>1&#45;&gt;5</title>
<path fill="none" stroke="black" d="M194.71,-481.18C213.2,-443.15 260.32,-342.04 284,-252.5 285.92,-245.24 287.34,-237.24 288.38,-229.81"/>
<polygon fill="black" stroke="black" points="291.86,-230.17 289.6,-219.82 284.91,-229.32 291.86,-230.17"/>
<text text-anchor="middle" x="262" y="-337.79" font-family="Times,serif" font-size="14.00">2</text>
</g>
<!-- 1&#45;&gt;6 -->
<g id="edge19" class="edge">
<title>1&#45;&gt;6</title>
<path fill="none" stroke="black" d="M178.38,-481.76C155.57,-441.18 93.78,-325.07 71,-219.5 65.48,-193.94 65.25,-164.03 66.08,-142.86"/>
<polygon fill="black" stroke="black" points="69.59,-142.82 66.6,-132.66 62.6,-142.47 69.59,-142.82"/>
<text text-anchor="middle" x="105" y="-289.54" font-family="Times,serif" font-size="14.00">2</text>
</g>
<!-- 1&#45;&gt;0 -->
<g id="edge17" class="edge">
<title>1&#45;&gt;0</title>
<path fill="none" stroke="black" d="M181.04,-514.95C176.13,-528.31 169.07,-547.52 163.39,-562.95"/>
<polygon fill="black" stroke="black" points="160.07,-561.85 159.9,-572.44 166.64,-564.27 160.07,-561.85"/>
<text text-anchor="middle" x="176" y="-542.29" font-family="Times,serif" font-size="14.00">4</text>
</g>
<!-- 4 -->
<g id="node12" class="node">
<title>4</title>
<ellipse fill="none" stroke="black" cx="188" cy="-384.99" rx="18" ry="18"/>
<text text-anchor="middle" x="188" y="-381.29" font-family="Times,serif" font-size="14.00">4</text>
</g>
<!-- 1&#45;&gt;4 -->
<g id="edge20" class="edge">
<title>1&#45;&gt;4</title>
<path fill="none" stroke="black" d="M187.16,-479.44C187.32,-461.72 187.57,-433.92 187.75,-413.25"/>
<polygon fill="black" stroke="black" points="191.25,-413.21 187.84,-403.17 184.25,-413.14 191.25,-413.21"/>
<text text-anchor="middle" x="192" y="-435.29" font-family="Times,serif" font-size="14.00">2</text>
</g>
<!-- 2&#45;&gt;5 -->
<g id="edge26" class="edge">
<title>2&#45;&gt;5</title>
<path fill="none" stroke="black" d="M341.36,-420.84C343.51,-385.2 345.12,-301.12 319,-237.5 316.82,-232.19 313.57,-227.03 310.05,-222.38"/>
<polygon fill="black" stroke="black" points="312.69,-220.08 303.6,-214.64 307.31,-224.56 312.69,-220.08"/>
<text text-anchor="middle" x="346" y="-337.79" font-family="Times,serif" font-size="14.00">2</text>
</g>
<!-- 4&#45;&gt;10 -->
<g id="edge27" class="edge">
<title>4&#45;&gt;10</title>
<path fill="none" stroke="black" d="M188,-366.69C188,-355.35 188,-340.19 188,-326.66"/>
<polygon fill="black" stroke="black" points="191.5,-326.27 188,-316.27 184.5,-326.27 191.5,-326.27"/>
<text text-anchor="middle" x="193" y="-337.79" font-family="Times,serif" font-size="14.00">2</text>
</g>
<!-- 7&#45;&gt;10 -->
<g id="edge24" class="edge">
<title>7&#45;&gt;10</title>
<path fill="none" stroke="black" d="M245.18,-131.82C234.62,-161.46 212.12,-224.56 198.71,-262.19"/>
<polygon fill="black" stroke="black" points="195.41,-261.03 195.35,-271.62 202,-263.38 195.41,-261.03"/>
<text text-anchor="middle" x="230" y="-197.8" font-family="Times,serif" font-size="14.00">1</text>
</g>
<!-- 7&#45;&gt;12 -->
<g id="edge25" class="edge">
<title>7&#45;&gt;12</title>
<path fill="none" stroke="black" d="M241.04,-99.08C231.97,-85.95 218.35,-66.24 207.32,-50.27"/>
<polygon fill="black" stroke="black" points="210.07,-48.09 201.51,-41.85 204.31,-52.07 210.07,-48.09"/>
<text text-anchor="middle" x="230" y="-67.3" font-family="Times,serif" font-size="14.00">2</text>
</g>
<!-- 7&#45;&gt;5 -->
<g id="edge23" class="edge">
<title>7&#45;&gt;5</title>
<path fill="none" stroke="black" d="M255.5,-132.13C258.46,-142.06 262.77,-154.79 268,-165.5 270.07,-169.73 272.56,-174.06 275.13,-178.16"/>
<polygon fill="black" stroke="black" points="272.32,-180.26 280.75,-186.68 278.16,-176.4 272.32,-180.26"/>
<text text-anchor="middle" x="273" y="-154.3" font-family="Times,serif" font-size="14.00">1</text>
</g>
</g>
</svg>
