<?xml version="1.0" encoding="UTF-8" standalone="no"?>
<!DOCTYPE svg PUBLIC "-//W3C//DTD SVG 1.1//EN"
 "http://www.w3.org/Graphics/SVG/1.1/DTD/svg11.dtd">
<!-- Generated by graphviz version 14.0.5 (0)
 -->
<!-- Title: G Pages: 1 -->
<svg width="285pt" height="598pt"
 viewBox="0.00 0.00 285.00 598.00" xmlns="http://www.w3.org/2000/svg" xmlns:xlink="http://www.w3.org/1999/xlink">
<g id="graph0" class="graph" transform="scale(1 1) rotate(0) translate(4 594.25)">
<title>G</title>
<polygon fill="white" stroke="none" points="-4,4 -4,-594.25 281,-594.25 281,4 -4,4"/>
<!-- 7 -->
<g id="node1" class="node">
<title>7</title>
<ellipse fill="none" stroke="black" cx="250" cy="-285.75" rx="27" ry="18"/>
<text xml:space="preserve" text-anchor="middle" x="250" y="-281.07" font-family="Times,serif" font-size="14.00">7</text>
</g>
<!-- 10 -->
<g id="node2" class="node">
<title>10</title>
<ellipse fill="none" stroke="black" cx="195" cy="-107.25" rx="27" ry="18"/>
<text xml:space="preserve" text-anchor="middle" x="195" y="-102.58" font-family="Times,serif" font-size="14.00">10</text>
</g>
<!-- 7&#45;&gt;10 -->
<g id="edge1" class="edge">
<title>7&#45;&gt;10</title>
<path fill="none" stroke="black" d="M245.61,-267.59C238.63,-240.8 224.22,-187.51 209,-143.25 208.12,-140.69 207.16,-138.05 206.17,-135.41"/>
<polygon fill="black" stroke="black" points="209.49,-134.3 202.58,-126.27 202.97,-136.86 209.49,-134.3"/>
<text xml:space="preserve" text-anchor="middle" x="235.39" y="-191.82" font-family="Times,serif" font-size="14.00">1</text>
</g>
<!-- 12 -->
<g id="node3" class="node">
<title>12</title>
<ellipse fill="none" stroke="black" cx="237" cy="-18" rx="27" ry="18"/>
<text xml:space="preserve" text-anchor="middle" x="237" y="-13.32" font-family="Times,serif" font-size="14.00">12</text>
</g>
<!-- 7&#45;&gt;12 -->
<g id="edge2" class="edge">
<title>7&#45;&gt;12</title>
<path fill="none" stroke="black" d="M251.79,-267.32C252.29,-261.72 252.75,-255.48 253,-249.75 253.33,-242.09 253.29,-240.16 253,-232.5 250.52,-166.21 243.72,-88.59 239.83,-47.65"/>
<polygon fill="black" stroke="black" points="243.34,-47.53 238.89,-37.92 236.37,-48.21 243.34,-47.53"/>
<text xml:space="preserve" text-anchor="middle" x="253.58" y="-147.2" font-family="Times,serif" font-size="14.00">2</text>
</g>
<!-- 10&#45;&gt;12 -->
<g id="edge11" class="edge">
<title>10&#45;&gt;12</title>
<path fill="none" stroke="black" d="M202.9,-89.84C208.85,-77.49 217.12,-60.29 224.04,-45.93"/>
<polygon fill="black" stroke="black" points="227.15,-47.53 228.34,-37 220.85,-44.49 227.15,-47.53"/>
<text xml:space="preserve" text-anchor="middle" x="224.26" y="-57.95" font-family="Times,serif" font-size="14.00">6</text>
</g>
<!-- 5 -->
<g id="node4" class="node">
<title>5</title>
<ellipse fill="none" stroke="black" cx="215" cy="-393.75" rx="27" ry="18"/>
<text xml:space="preserve" text-anchor="middle" x="215" y="-389.07" font-family="Times,serif" font-size="14.00">5</text>
</g>
<!-- 5&#45;&gt;7 -->
<g id="edge3" class="edge">
<title>5&#45;&gt;7</title>
<path fill="none" stroke="black" d="M220.62,-375.72C226.06,-359.26 234.39,-334.04 240.79,-314.65"/>
<polygon fill="black" stroke="black" points="244.1,-315.77 243.92,-305.18 237.46,-313.57 244.1,-315.77"/>
<text xml:space="preserve" text-anchor="middle" x="242.18" y="-335.07" font-family="Times,serif" font-size="14.00">1</text>
</g>
<!-- 5&#45;&gt;10 -->
<g id="edge4" class="edge">
<title>5&#45;&gt;10</title>
<path fill="none" stroke="black" d="M213.78,-375.38C210.44,-327.85 201.12,-195.3 197,-136.71"/>
<polygon fill="black" stroke="black" points="200.5,-136.63 196.31,-126.9 193.52,-137.12 200.5,-136.63"/>
<text xml:space="preserve" text-anchor="middle" x="209.27" y="-236.45" font-family="Times,serif" font-size="14.00">1</text>
</g>
<!-- 9 -->
<g id="node5" class="node">
<title>9</title>
<ellipse fill="none" stroke="black" cx="99" cy="-196.5" rx="27" ry="18"/>
<text xml:space="preserve" text-anchor="middle" x="99" y="-191.82" font-family="Times,serif" font-size="14.00">9</text>
</g>
<!-- 9&#45;&gt;10 -->
<g id="edge5" class="edge">
<title>9&#45;&gt;10</title>
<path fill="none" stroke="black" d="M107.07,-178.95C113.08,-167.86 122.11,-153.47 133,-143.25 141.56,-135.21 152.31,-128.32 162.43,-122.83"/>
<polygon fill="black" stroke="black" points="163.98,-125.97 171.3,-118.31 160.8,-119.73 163.98,-125.97"/>
<text xml:space="preserve" text-anchor="middle" x="137.5" y="-147.2" font-family="Times,serif" font-size="14.00">4</text>
</g>
<!-- 11 -->
<g id="node6" class="node">
<title>11</title>
<ellipse fill="none" stroke="black" cx="34" cy="-285.75" rx="27" ry="18"/>
<text xml:space="preserve" text-anchor="middle" x="34" y="-281.07" font-family="Times,serif" font-size="14.00">11</text>
</g>
<!-- 11&#45;&gt;9 -->
<g id="edge6" class="edge">
<title>11&#45;&gt;9</title>
<path fill="none" stroke="black" d="M45.62,-269.15C55.42,-256 69.61,-236.96 80.89,-221.81"/>
<polygon fill="black" stroke="black" points="83.41,-224.29 86.58,-214.18 77.79,-220.11 83.41,-224.29"/>
<text xml:space="preserve" text-anchor="middle" x="76.82" y="-236.45" font-family="Times,serif" font-size="14.00">2</text>
</g>
<!-- 8 -->
<g id="node7" class="node">
<title>8</title>
<ellipse fill="none" stroke="black" cx="27" cy="-393.75" rx="27" ry="18"/>
<text xml:space="preserve" text-anchor="middle" x="27" y="-389.07" font-family="Times,serif" font-size="14.00">8</text>
</g>
<!-- 8&#45;&gt;11 -->
<g id="edge7" class="edge">
<title>8&#45;&gt;11</title>
<path fill="none" stroke="black" d="M28.12,-375.72C29.19,-359.51 30.83,-334.81 32.1,-315.54"/>
<polygon fill="black" stroke="black" points="35.59,-315.81 32.76,-305.6 28.6,-315.35 35.59,-315.81"/>
<text xml:space="preserve" text-anchor="middle" x="36.04" y="-335.07" font-family="Times,serif" font-size="14.00">2</text>
</g>
<!-- 6 -->
<g id="node8" class="node">
<title>6</title>
<ellipse fill="none" stroke="black" cx="99" cy="-393.75" rx="27" ry="18"/>
<text xml:space="preserve" text-anchor="middle" x="99" y="-389.07" font-family="Times,serif" font-size="14.00">6</text>
</g>
<!-- 6&#45;&gt;9 -->
<g id="edge8" class="edge">
<title>6&#45;&gt;9</title>
<path fill="none" stroke="black" d="M99,-375.42C99,-341.77 99,-267.28 99,-226.16"/>
<polygon fill="black" stroke="black" points="102.5,-226.3 99,-216.3 95.5,-226.3 102.5,-226.3"/>
<text xml:space="preserve" text-anchor="middle" x="103.5" y="-281.07" font-family="Times,serif" font-size="14.00">2</text>
</g>
<!-- 3 -->
<g id="node9" class="node">
<title>3</title>
<ellipse fill="none" stroke="black" cx="77" cy="-483" rx="27" ry="18"/>
<text xml:space="preserve" text-anchor="middle" x="77" y="-478.32" font-family="Times,serif" font-size="14.00">3</text>
</g>
<!-- 3&#45;&gt;8 -->
<g id="edge9" class="edge">
<title>3&#45;&gt;8</title>
<path fill="none" stroke="black" d="M67.83,-466C60.54,-453.29 50.21,-435.26 41.77,-420.52"/>
<polygon fill="black" stroke="black" points="45.04,-419.2 37.03,-412.26 38.97,-422.68 45.04,-419.2"/>
<text xml:space="preserve" text-anchor="middle" x="60.98" y="-433.7" font-family="Times,serif" font-size="14.00">2</text>
</g>
<!-- 3&#45;&gt;6 -->
<g id="edge10" class="edge">
<title>3&#45;&gt;6</title>
<path fill="none" stroke="black" d="M79.64,-464.92C81.39,-454.65 83.92,-441.35 87,-429.75 87.64,-427.33 88.37,-424.83 89.14,-422.34"/>
<polygon fill="black" stroke="black" points="92.37,-423.72 92.18,-413.13 85.72,-421.53 92.37,-423.72"/>
<text xml:space="preserve" text-anchor="middle" x="91.5" y="-433.7" font-family="Times,serif" font-size="14.00">2</text>
</g>
<!-- 2 -->
<g id="node10" class="node">
<title>2</title>
<ellipse fill="none" stroke="black" cx="221" cy="-483" rx="27" ry="18"/>
<text xml:space="preserve" text-anchor="middle" x="221" y="-478.32" font-family="Times,serif" font-size="14.00">2</text>
</g>
<!-- 2&#45;&gt;5 -->
<g id="edge12" class="edge">
<title>2&#45;&gt;5</title>
<path fill="none" stroke="black" d="M219.81,-464.76C219,-452.93 217.9,-436.95 216.96,-423.25"/>
<polygon fill="black" stroke="black" points="220.46,-423.2 216.29,-413.46 213.48,-423.68 220.46,-423.2"/>
<text xml:space="preserve" text-anchor="middle" x="223.04" y="-433.7" font-family="Times,serif" font-size="14.00">2</text>
</g>
<!-- 4 -->
<g id="node11" class="node">
<title>4</title>
<ellipse fill="none" stroke="black" cx="153" cy="-339.75" rx="27" ry="18"/>
<text xml:space="preserve" text-anchor="middle" x="153" y="-335.07" font-family="Times,serif" font-size="14.00">4</text>
</g>
<!-- 4&#45;&gt;10 -->
<g id="edge13" class="edge">
<title>4&#45;&gt;10</title>
<path fill="none" stroke="black" d="M153.83,-321.41C155.85,-286.86 162.29,-207.26 181,-143.25 181.76,-140.65 182.64,-137.98 183.58,-135.33"/>
<polygon fill="black" stroke="black" points="186.78,-136.76 187.1,-126.17 180.24,-134.25 186.78,-136.76"/>
<text xml:space="preserve" text-anchor="middle" x="166.85" y="-236.45" font-family="Times,serif" font-size="14.00">2</text>
</g>
<!-- 1 -->
<g id="node12" class="node">
<title>1</title>
<ellipse fill="none" stroke="black" cx="149" cy="-483" rx="27" ry="18"/>
<text xml:space="preserve" text-anchor="middle" x="149" y="-478.32" font-family="Times,serif" font-size="14.00">1</text>
</g>
<!-- 1&#45;&gt;5 -->
<g id="edge14" class="edge">
<title>1&#45;&gt;5</title>
<path fill="none" stroke="black" d="M160.8,-466.4C170.75,-453.25 185.15,-434.21 196.61,-419.06"/>
<polygon fill="black" stroke="black" points="199.15,-421.51 202.39,-411.42 193.57,-417.28 199.15,-421.51"/>
<text xml:space="preserve" text-anchor="middle" x="192.41" y="-433.7" font-family="Times,serif" font-size="14.00">2</text>
</g>
<!-- 1&#45;&gt;6 -->
<g id="edge15" class="edge">
<title>1&#45;&gt;6</title>
<path fill="none" stroke="black" d="M136.63,-466.8C132.06,-460.82 127.01,-453.77 123,-447 118.38,-439.21 114.02,-430.37 110.32,-422.21"/>
<polygon fill="black" stroke="black" points="113.53,-420.82 106.32,-413.06 107.12,-423.62 113.53,-420.82"/>
<text xml:space="preserve" text-anchor="middle" x="127.5" y="-433.7" font-family="Times,serif" font-size="14.00">2</text>
</g>
<!-- 1&#45;&gt;4 -->
<g id="edge16" class="edge">
<title>1&#45;&gt;4</title>
<path fill="none" stroke="black" d="M149.49,-464.68C150.16,-440.96 151.38,-398.06 152.19,-369.48"/>
<polygon fill="black" stroke="black" points="155.68,-369.82 152.46,-359.72 148.68,-369.62 155.68,-369.82"/>
<text xml:space="preserve" text-anchor="middle" x="154.91" y="-433.7" font-family="Times,serif" font-size="14.00">2</text>
</g>
<!-- 0 -->
<g id="node13" class="node">
<title>0</title>
<ellipse fill="none" stroke="black" cx="149" cy="-572.25" rx="27" ry="18"/>
<text xml:space="preserve" text-anchor="middle" x="149" y="-567.58" font-family="Times,serif" font-size="14.00">0</text>
</g>
<!-- 0&#45;&gt;3 -->
<g id="edge19" class="edge">
<title>0&#45;&gt;3</title>
<path fill="none" stroke="black" d="M136.46,-556.05C125.48,-542.75 109.34,-523.19 96.65,-507.81"/>
<polygon fill="black" stroke="black" points="99.67,-505.97 90.6,-500.48 94.27,-510.42 99.67,-505.97"/>
<text xml:space="preserve" text-anchor="middle" x="123.95" y="-522.95" font-family="Times,serif" font-size="14.00">2</text>
</g>
<!-- 0&#45;&gt;2 -->
<g id="edge18" class="edge">
<title>0&#45;&gt;2</title>
<path fill="none" stroke="black" d="M161.54,-556.05C172.52,-542.75 188.66,-523.19 201.35,-507.81"/>
<polygon fill="black" stroke="black" points="203.73,-510.42 207.4,-500.48 198.33,-505.97 203.73,-510.42"/>
<text xml:space="preserve" text-anchor="middle" x="195.95" y="-522.95" font-family="Times,serif" font-size="14.00">2</text>
</g>
<!-- 0&#45;&gt;1 -->
<g id="edge17" class="edge">
<title>0&#45;&gt;1</title>
<path fill="none" stroke="black" d="M149,-554.01C149,-542.18 149,-526.2 149,-512.5"/>
<polygon fill="black" stroke="black" points="152.5,-512.72 149,-502.72 145.5,-512.72 152.5,-512.72"/>
<text xml:space="preserve" text-anchor="middle" x="153.5" y="-522.95" font-family="Times,serif" font-size="14.00">4</text>
</g>
</g>
</svg>
